<svg xmlns="http://www.w3.org/2000/svg" version="1.1" xmlns:xlink="http://www.w3.org/1999/xlink" xmlns:svgjs="http://svgjs.dev/svgjs" width="1500" height="1500" viewBox="0 0 1500 1500"><rect width="1500" height="1500" fill="#000000"></rect><g transform="matrix(0.6666666666666666,0,0,0.6666666666666666,250.88393442622936,244.40971659919023)"><svg viewBox="0 0 244 247" data-background-color="#ffffff" preserveAspectRatio="xMidYMid meet" height="1518" width="1500" xmlns="http://www.w3.org/2000/svg" xmlns:xlink="http://www.w3.org/1999/xlink"><g id="tight-bounds" transform="matrix(1,0,0,1,-0.21567999999996346,-0.09999999999999432)"><svg viewBox="0 0 244.43135999999996 247.2" height="247.2" width="244.43135999999996"><g><svg></svg></g><g><svg viewBox="0 0 244.43135999999996 247.2" height="247.2" width="244.43135999999996"><g transform="matrix(1,0,0,1,0,57.92451853367922)"><svg viewBox="0 0 244.43135999999996 131.35096293264155" height="131.35096293264155" width="244.43135999999996"><g><svg viewBox="0 0 245.65351679999995 132.00771774730475" height="131.35096293264155" width="244.43135999999996"><g><rect width="245.65351679999995" height="5.283103762008251" x="0" y="54.31118489825622" fill="#ffffff" opacity="1" stroke-width="0" stroke="transparent" fill-opacity="1" class="rect-qz-0" data-fill-palette-color="secondary" rx="1%" id="qz-0" data-palette-color="#61777f"></rect></g><g transform="matrix(1,0,0,1,0.6110783999999825,73.42440322049549)"><svg viewBox="0 0 244.43135999999998 58.583314526809254" height="58.583314526809254" width="244.43135999999998"><g id="textblocktransform"><svg viewBox="0 0 244.43135999999998 58.583314526809254" height="58.583314526809254" width="244.43135999999998" id="textblock"><g><svg viewBox="0 0 244.43135999999998 58.583314526809254" height="58.583314526809254" width="244.43135999999998"><g transform="matrix(1,0,0,1,0,0)"><svg width="244.43135999999998" viewBox="0.75 -40.5 170.63 40.9" height="58.583314526809254" data-palette-color="#61777f"><path d="M13.25 0L7.6 0 7.6-36.3 0.75-36.3 0.75-40.5 19.9-40.5 19.9-36.3 13.25-36.3 13.25 0ZM33.05 0L23.8 0 23.8-40.5 32.6-40.5Q37.1-40.5 39.72-39.13 42.35-37.75 43.47-35 44.6-32.25 44.6-28.15L44.6-28.15 44.6-13.25Q44.6-8.95 43.47-6 42.35-3.05 39.82-1.53 37.3 0 33.05 0L33.05 0ZM29.45-36.3L29.45-4.05 32.65-4.05Q35.75-4.05 37.05-5.25 38.35-6.45 38.62-8.75 38.9-11.05 38.9-14.3L38.9-14.3 38.9-27.45Q38.9-30.6 38.5-32.55 38.1-34.5 36.75-35.4 35.4-36.3 32.5-36.3L32.5-36.3 29.45-36.3ZM60.6-13.05L49.45-13.05 49.45-17.1 60.6-17.1 60.6-13.05ZM71.84 0L66.19 0 66.19-40.5 76.24-40.5Q79.89-40.5 82.07-39.18 84.24-37.85 85.24-35.35 86.24-32.85 86.24-29.3L86.24-29.3Q86.24-26.1 85.12-23.75 83.99-21.4 81.79-20.13 79.59-18.85 76.29-18.85L76.29-18.85 71.84-18.85 71.84 0ZM71.84-36.45L71.84-22.9 74.44-22.9Q76.89-22.9 78.29-23.45 79.69-24 80.29-25.38 80.89-26.75 80.89-29.25L80.89-29.25Q80.89-32.15 80.47-33.7 80.04-35.25 78.69-35.85 77.34-36.45 74.49-36.45L74.49-36.45 71.84-36.45ZM95.24 0L89.89 0 89.89-40.5 95.24-40.5 95.24-25.9Q96.69-27.3 98.49-28.3 100.29-29.3 102.49-29.3L102.49-29.3Q104.19-29.3 105.12-28.4 106.04-27.5 106.42-26.15 106.79-24.8 106.79-23.4L106.79-23.4 106.79 0 101.44 0 101.44-21.85Q101.44-23.4 100.99-24.25 100.54-25.1 99.14-25.1L99.14-25.1Q98.19-25.1 97.17-24.55 96.14-24 95.24-23.2L95.24-23.2 95.24 0ZM119.94 0.4L119.94 0.4Q116.74 0.4 114.89-0.9 113.04-2.2 112.26-4.6 111.49-7 111.49-10.25L111.49-10.25 111.49-18.65Q111.49-21.9 112.26-24.3 113.04-26.7 114.89-28 116.74-29.3 119.94-29.3L119.94-29.3Q123.14-29.3 124.96-28 126.79-26.7 127.56-24.3 128.34-21.9 128.34-18.65L128.34-18.65 128.34-10.25Q128.34-7 127.56-4.6 126.79-2.2 124.96-0.9 123.14 0.4 119.94 0.4ZM119.94-3.55L119.94-3.55Q121.49-3.55 122.11-4.45 122.74-5.35 122.86-6.83 122.99-8.3 122.99-9.9L122.99-9.9 122.99-18.95Q122.99-20.6 122.86-22.05 122.74-23.5 122.11-24.43 121.49-25.35 119.94-25.35L119.94-25.35Q118.39-25.35 117.74-24.43 117.09-23.5 116.96-22.05 116.84-20.6 116.84-18.95L116.84-18.95 116.84-9.9Q116.84-8.3 116.96-6.83 117.09-5.35 117.74-4.45 118.39-3.55 119.94-3.55ZM138.59 0L133.24 0 133.24-28.9 138.59-28.9 138.59-26.05Q140.04-27.4 141.79-28.35 143.54-29.3 145.64-29.3L145.64-29.3Q147.39-29.3 148.31-28.4 149.24-27.5 149.61-26.15 149.99-24.8 149.99-23.4L149.99-23.4 149.99 0 144.64 0 144.64-21.85Q144.64-23.4 144.19-24.25 143.74-25.1 142.34-25.1L142.34-25.1Q141.44-25.1 140.46-24.58 139.49-24.05 138.59-23.3L138.59-23.3 138.59 0ZM163.18 0.4L163.18 0.4Q159.78 0.4 157.93-0.93 156.08-2.25 155.36-4.83 154.63-7.4 154.63-11.15L154.63-11.15 154.63-17.75Q154.63-21.6 155.38-24.15 156.13-26.7 158.01-28 159.88-29.3 163.18-29.3L163.18-29.3Q166.83-29.3 168.56-27.8 170.28-26.3 170.83-23.48 171.38-20.65 171.38-16.7L171.38-16.7 171.38-14.35 159.98-14.35 159.98-8.55Q159.98-6.8 160.31-5.7 160.63-4.6 161.36-4.08 162.08-3.55 163.23-3.55L163.23-3.55Q164.43-3.55 165.06-4.13 165.68-4.7 165.91-5.78 166.13-6.85 166.13-8.3L166.13-8.3 166.13-10.05 171.33-10.05 171.33-8.95Q171.33-4.6 169.48-2.1 167.63 0.4 163.18 0.4ZM159.98-18.8L159.98-17.25 166.13-17.25 166.13-19.85Q166.13-21.65 165.93-22.88 165.73-24.1 165.11-24.73 164.48-25.35 163.13-25.35L163.13-25.35Q161.83-25.35 161.16-24.75 160.48-24.15 160.23-22.73 159.98-21.3 159.98-18.8L159.98-18.8Z" opacity="1" transform="matrix(1,0,0,1,0,0)" fill="#ffffff" class="wordmark-text-0" data-fill-palette-color="primary" id="text-0"></path></svg></g></svg></g></svg></g></svg></g><g transform="matrix(1,0,0,1,102.84766615711496,0)"><svg viewBox="0 0 39.95818448577002 40.4810703380252" height="40.4810703380252" width="39.95818448577002"><g><svg xmlns="http://www.w3.org/2000/svg" xmlns:xlink="http://www.w3.org/1999/xlink" version="1.1" x="8.000000000000002" y="0" viewBox="21.299999999999997 0.5 58 98" enable-background="new 0 0 100 100" xml:space="preserve" height="40.4810703380252" width="23.958184485770015" class="icon-icon-0" data-fill-palette-color="accent" id="icon-0"><path fill="#ffffff" d="M69.3 0.5h-38c-5.5 0-10 4.5-10 10v78c0 5.5 4.5 10 10 10h38c5.5 0 10-4.5 10-10v-78C79.3 5 74.8 0.5 69.3 0.5zM50 93.2c-2.7 0-5-2.2-5-5 0-2.7 2.2-5 5-5s5 2.2 5 5C55 91 52.7 93.2 50 93.2zM71.3 79.5h-42v-66h42V79.5z" data-fill-palette-color="accent"></path></svg></g></svg></g><g><rect width="55.55019799711497" height="5.283103762008251" y="34.197966576016945" x="142.805850642885" fill="#ffffff" data-fill-palette-color="secondary"></rect><rect width="55.55019799711497" height="5.283103762008251" y="34.197966576016945" x="47.297468159999994" fill="#ffffff" data-fill-palette-color="secondary"></rect></g></svg></g></svg></g><path d="M0 51.925L0 1 244.431 1 244.431 51.925 239.175 51.925 239.175 6.257 5.257 6.257 5.257 51.925 0 51.925M0 195.275L0 246.2 244.431 246.2 244.431 195.275 239.175 195.275 239.175 240.943 5.257 240.943 5.257 195.275 0 195.275" fill="#ffffff" stroke="transparent" data-fill-palette-color="primary"></path></svg></g><defs></defs></svg><rect width="244.43135999999996" height="247.2" fill="none" stroke="none" visibility="hidden"></rect></g></svg></g></svg>